<svg width="18" height="17" viewBox="0 0 18 17" fill="none" xmlns="http://www.w3.org/2000/svg">
<path fill-rule="evenodd" clip-rule="evenodd" d="M6.91376 16.5H10.864C13.6382 16.5 15.0257 16.5 16.0222 15.8467C16.4521 15.5649 16.8224 15.2012 17.112 14.7764C17.7777 13.7987 17.7777 12.436 17.7777 9.71246C17.7777 6.98803 17.7777 5.62625 17.112 4.64848C16.8224 4.22369 16.4521 3.86003 16.0222 3.57826C15.3822 3.15781 14.5804 3.00759 13.3529 2.95426C12.7671 2.95426 12.2631 2.5187 12.1484 1.95426C12.0608 1.54081 11.8331 1.17029 11.5038 0.90533C11.1746 0.640366 10.7639 0.497205 10.3413 0.500041H7.43643C6.55821 0.500041 5.80176 1.10893 5.62932 1.95426C5.51465 2.5187 5.01065 2.95426 4.42488 2.95426C3.19821 3.00759 2.39644 3.1587 1.75555 3.57826C1.32588 3.86009 0.955886 4.22374 0.666665 4.64848C0 5.62625 0 6.98803 0 9.71246C0 12.436 5.29818e-08 13.7978 0.665776 14.7764C0.953775 15.1996 1.32355 15.5631 1.75555 15.8467C2.75199 16.5 4.13954 16.5 6.91376 16.5ZM8.88887 6.07603C6.84354 6.07603 5.18488 7.70358 5.18488 9.71157C5.18488 11.7205 6.84354 13.3489 8.88887 13.3489C10.9342 13.3489 12.5929 11.7205 12.5929 9.71246C12.5929 7.70358 10.9342 6.07603 8.88887 6.07603ZM8.88887 7.53025C7.6622 7.53025 6.66665 8.50713 6.66665 9.71246C6.66665 10.9169 7.6622 11.8938 8.88887 11.8938C10.1155 11.8938 11.1111 10.9169 11.1111 9.71246C11.1111 8.50713 10.1155 7.53025 8.88887 7.53025ZM13.0862 6.80314C13.0862 6.40136 13.4177 6.07603 13.8275 6.07603H14.8142C15.2231 6.07603 15.5555 6.40136 15.5555 6.80314C15.5536 6.99771 15.4746 7.18358 15.3358 7.31992C15.1969 7.45626 15.0097 7.5319 14.8151 7.53025H13.8275C13.7311 7.53118 13.6354 7.51312 13.546 7.47709C13.4566 7.44105 13.3751 7.38775 13.3063 7.32024C13.2374 7.25272 13.1825 7.1723 13.1448 7.08358C13.107 6.99485 13.0871 6.89956 13.0862 6.80314Z" fill="#FFCF09"/>
</svg>
