<svg width="29" height="17" viewBox="0 0 29 17" fill="none" xmlns="http://www.w3.org/2000/svg">
<path fill-rule="evenodd" clip-rule="evenodd" d="M23.182 11.8398C25.1795 11.8398 26.1785 11.8398 26.896 11.3694C27.2055 11.1665 27.4721 10.9047 27.6806 10.5989C28.16 9.89488 28.16 8.91376 28.16 6.9528C28.16 4.99121 28.16 4.01073 27.6806 3.30673C27.4721 3.00088 27.2055 2.73905 26.896 2.53617C26.4352 2.23345 25.8579 2.12529 24.974 2.08689C24.5523 2.08689 24.1894 1.77329 24.1068 1.36689C24.0437 1.06921 23.8798 0.802436 23.6427 0.611662C23.4057 0.420888 23.11 0.317812 22.8057 0.319854H20.7142C20.0819 0.319854 19.5372 0.758253 19.4131 1.36689C19.3305 1.77329 18.9676 2.08689 18.5459 2.08689C17.6627 2.12529 17.0854 2.23409 16.624 2.53617C16.3146 2.73909 16.0482 3.00092 15.84 3.30673C15.36 4.01073 15.36 4.99121 15.36 6.9528C15.36 8.91376 15.36 9.89424 15.8393 10.5989C16.0467 10.9035 16.3129 11.1653 16.624 11.3694C17.2399 11.7733 18.0633 11.8304 19.5478 11.8385C18.3387 13.5575 16.3396 14.6798 14.08 14.6798C11.8204 14.6798 9.82137 13.5575 8.61218 11.8385C10.0966 11.8305 10.9201 11.7733 11.536 11.3695C11.8455 11.1666 12.1122 10.9048 12.3206 10.5989C12.8 9.89492 12.8 8.9138 12.8 6.95284C12.8 4.99125 12.8 4.01077 12.3206 3.30677C12.1122 3.00092 11.8456 2.73909 11.536 2.53621C11.0752 2.23349 10.4979 2.12533 9.61406 2.08693C9.1923 2.08693 8.82943 1.77333 8.74687 1.36693C8.68377 1.06925 8.51984 0.802476 8.28277 0.611702C8.0457 0.420927 7.75004 0.317851 7.44575 0.319893H5.35423C4.72191 0.319893 4.17727 0.758293 4.05311 1.36693C3.97055 1.77333 3.60767 2.08693 3.18591 2.08693C2.30272 2.12533 1.72544 2.23413 1.264 2.53621C0.954635 2.73913 0.688238 3.00096 0.479999 3.30677C0 4.01077 0 4.99125 0 6.95284C0 8.9138 0 9.89428 0.479359 10.5989C0.686719 10.9036 0.952958 11.1653 1.264 11.3695C1.98144 11.8399 2.98048 11.8399 4.97791 11.8399H6.29379C7.71026 14.7065 10.6636 16.6798 14.08 16.6798C17.4964 16.6798 20.4498 14.7065 21.8662 11.8398H23.182ZM21.76 4.33457C20.2873 4.33457 19.0931 5.50641 19.0931 6.95216C19.0931 8.39856 20.2873 9.57104 21.76 9.57104C23.2326 9.57104 24.4268 8.39856 24.4268 6.9528C24.4268 5.50641 23.2326 4.33457 21.76 4.33457ZM21.76 5.38161C20.8768 5.38161 20.16 6.08497 20.16 6.9528C20.16 7.82 20.8768 8.52336 21.76 8.52336C22.6432 8.52336 23.36 7.82 23.36 6.9528C23.36 6.08497 22.6432 5.38161 21.76 5.38161ZM24.782 4.85809C24.782 4.56881 25.0208 4.33457 25.3158 4.33457H26.0262C26.3206 4.33457 26.56 4.56881 26.56 4.85809C26.5586 4.99818 26.5017 5.13201 26.4017 5.23017C26.3018 5.32833 26.1669 5.3828 26.0268 5.38161H25.3158C25.2464 5.38228 25.1775 5.36928 25.1131 5.34333C25.0487 5.31739 24.9901 5.27901 24.9405 5.2304C24.8909 5.18178 24.8514 5.12388 24.8242 5.06C24.797 4.99612 24.7827 4.92751 24.782 4.85809ZM6.39999 4.33461C4.92735 4.33461 3.73311 5.50644 3.73311 6.9522C3.73311 8.3986 4.92735 9.57108 6.39999 9.57108C7.87263 9.57108 9.06686 8.3986 9.06686 6.95284C9.06686 5.50645 7.87263 4.33461 6.39999 4.33461ZM6.39999 5.38165C5.51679 5.38165 4.79999 6.085 4.79999 6.95284C4.79999 7.82004 5.51679 8.5234 6.39999 8.5234C7.28319 8.5234 7.99999 7.82004 7.99999 6.95284C7.99999 6.085 7.28319 5.38165 6.39999 5.38165ZM9.42206 4.85813C9.42206 4.56885 9.66078 4.33461 9.95582 4.33461H10.6662C10.9606 4.33461 11.2 4.56885 11.2 4.85813C11.1986 4.99822 11.1417 5.13205 11.0418 5.23021C10.9418 5.32837 10.807 5.38284 10.6669 5.38165H9.95582C9.8864 5.38232 9.81752 5.36932 9.75313 5.34337C9.68873 5.31743 9.63008 5.27905 9.58051 5.23044C9.53095 5.18182 9.49144 5.12392 9.46426 5.06004C9.43707 4.99616 9.42273 4.92755 9.42206 4.85813Z" fill="#FFCF09"/>
</svg>
