<svg width="28" height="28" viewBox="0 0 28 28" fill="none" xmlns="http://www.w3.org/2000/svg">
<path opacity="0.15" d="M3.62256 25.3553C3.62256 25.7142 4.7159 26.0584 6.66206 26.3122C8.60822 26.566 11.2478 26.7086 14.0001 26.7086C16.7523 26.7086 19.3919 26.566 21.3381 26.3122C23.2842 26.0584 24.3776 25.7142 24.3776 25.3553C24.3776 25.1776 24.1091 25.0016 23.5876 24.8374C23.0661 24.6732 22.3017 24.524 21.3381 24.3983C20.3744 24.2727 19.2304 24.173 17.9714 24.105C16.7123 24.037 15.3629 24.002 14.0001 24.002C12.6373 24.002 11.2878 24.037 10.0288 24.105C8.76971 24.173 7.6257 24.2727 6.66206 24.3983C5.69842 24.524 4.93402 24.6732 4.4125 24.8374C3.89098 25.0016 3.62256 25.1776 3.62256 25.3553Z" fill="#45413C"/>
<path d="M13.9999 25.8383C20.5369 25.8383 25.8361 20.5391 25.8361 14.0021C25.8361 7.46523 20.5369 2.16602 13.9999 2.16602C7.46303 2.16602 2.16382 7.46523 2.16382 14.0021C2.16382 20.5391 7.46303 25.8383 13.9999 25.8383Z" fill="#F4F4F4"/>
<path d="M9.40011 4.72212C9.39196 4.66524 9.37268 4.61052 9.34338 4.56109C9.31408 4.51166 9.27533 4.46848 9.22934 4.43403C9.18335 4.39958 9.13102 4.37453 9.07534 4.3603C9.01967 4.34607 8.96174 4.34295 8.90486 4.35112L8.47173 4.41237C8.41485 4.42052 8.36013 4.4398 8.3107 4.4691C8.26127 4.4984 8.2181 4.53715 8.18364 4.58314C8.14919 4.62913 8.12414 4.68146 8.10991 4.73713C8.09569 4.79281 8.09257 4.85074 8.10073 4.90762L8.53823 7.97012C8.5545 8.08498 8.61571 8.18869 8.70842 8.25842C8.80113 8.32816 8.91774 8.35822 9.03261 8.342L9.46573 8.27987C9.52269 8.27182 9.57751 8.25262 9.62704 8.22336C9.67657 8.19411 9.71984 8.15537 9.75438 8.10937C9.78893 8.06337 9.81405 8.01101 9.82834 7.95528C9.84262 7.89956 9.84577 7.84156 9.83761 7.78462L9.40011 4.72212ZM17.3565 6.17375C17.3308 6.12231 17.2953 6.07643 17.2519 6.03874C17.2085 6.00105 17.1581 5.97228 17.1035 5.95408C17.049 5.93587 16.9914 5.92859 16.9341 5.93266C16.8768 5.93672 16.8208 5.95204 16.7694 5.97775L12.3944 8.16525C12.3429 8.19091 12.297 8.22646 12.2594 8.26986C12.2217 8.31326 12.1929 8.36367 12.1747 8.41819C12.1565 8.47272 12.1492 8.5303 12.1533 8.58764C12.1573 8.64498 12.1727 8.70095 12.1984 8.75237L12.3944 9.14349C12.4462 9.24715 12.537 9.32601 12.6469 9.36275C12.7569 9.3995 12.8769 9.39113 12.9806 9.33949L17.3556 7.15199C17.4593 7.10016 17.5381 7.00932 17.5749 6.89941C17.6116 6.7895 17.6032 6.6695 17.5516 6.56575L17.3565 6.17375ZM21.217 8.70337C21.2083 8.58769 21.154 8.48022 21.066 8.40457C20.9781 8.32893 20.8637 8.29131 20.748 8.29999L20.3114 8.33237C20.1957 8.34131 20.0883 8.39583 20.0128 8.48395C19.9373 8.57207 19.8999 8.68656 19.9089 8.80225L20.3464 14.6175C20.3553 14.7329 20.4096 14.84 20.4973 14.9154C20.585 14.9908 20.6991 15.0284 20.8145 15.02L21.2511 14.9876C21.3668 14.9789 21.4743 14.9246 21.5499 14.8366C21.6255 14.7487 21.6632 14.6343 21.6545 14.5186L21.217 8.70337ZM8.16898 10.1112C8.14332 10.0598 8.10777 10.0139 8.06437 9.97624C8.02097 9.93855 7.97056 9.90978 7.91604 9.89158C7.86151 9.87337 7.80393 9.86609 7.74659 9.87016C7.68925 9.87422 7.63328 9.88954 7.58186 9.91525L2.48673 12.4632C2.42072 12.4962 2.36412 12.5454 2.3222 12.6061C2.28028 12.6668 2.25441 12.7372 2.24698 12.8106C2.23561 12.9244 2.22598 13.039 2.21723 13.1545C2.21181 13.2327 2.22752 13.311 2.26273 13.3811L2.33186 13.5194C2.38385 13.6229 2.47475 13.7015 2.58465 13.7381C2.69455 13.7747 2.81446 13.7662 2.91811 13.7145L8.16811 11.0895C8.27176 11.0377 8.35062 10.9468 8.38737 10.8369C8.42411 10.727 8.41575 10.607 8.36411 10.5032L8.16898 10.1112ZM12.5807 12.1229C12.5311 12.0939 12.4762 12.075 12.4193 12.0672C12.3624 12.0595 12.3044 12.063 12.2489 12.0776C12.1933 12.0922 12.1411 12.1177 12.0954 12.1525C12.0496 12.1873 12.0112 12.2307 11.9822 12.2804L11.7617 12.6584C11.7328 12.708 11.7139 12.7629 11.7061 12.8198C11.6983 12.8768 11.7019 12.9347 11.7165 12.9903C11.7311 13.0458 11.7565 13.098 11.7913 13.1437C11.8261 13.1895 11.8696 13.2279 11.9192 13.2569L17.1692 16.3194C17.2189 16.3483 17.2737 16.3672 17.3307 16.375C17.3876 16.3828 17.4455 16.3792 17.5011 16.3646C17.5567 16.35 17.6088 16.3246 17.6546 16.2898C17.7003 16.255 17.7388 16.2115 17.7677 16.1619L17.9882 15.7839C18.0172 15.7342 18.0361 15.6794 18.0439 15.6224C18.0516 15.5655 18.0481 15.5076 18.0335 15.452C18.0189 15.3964 17.9934 15.3443 17.9586 15.2985C17.9238 15.2528 17.8804 15.2143 17.8307 15.1854L12.5807 12.1229ZM9.00636 13.5482C8.94907 13.5435 8.8914 13.55 8.83665 13.5675C8.78189 13.585 8.73112 13.6131 8.68724 13.6503C8.64336 13.6874 8.60723 13.7328 8.58091 13.7839C8.55459 13.835 8.5386 13.8908 8.53386 13.9481L8.09636 19.1981C8.09156 19.2554 8.09811 19.3131 8.11561 19.3678C8.13311 19.4226 8.16124 19.4734 8.19838 19.5172C8.23551 19.5611 8.28093 19.5973 8.33204 19.6236C8.38315 19.6499 8.43894 19.6659 8.49623 19.6706L8.93198 19.7065C9.04754 19.7162 9.16222 19.6796 9.25082 19.6048C9.33941 19.53 9.39469 19.423 9.40448 19.3075L9.84198 14.0575C9.84678 14.0002 9.84024 13.9425 9.82273 13.8878C9.80523 13.833 9.7771 13.7823 9.73997 13.7384C9.70283 13.6945 9.65741 13.6584 9.6063 13.632C9.55519 13.6057 9.4994 13.5897 9.44211 13.585L9.00636 13.5482ZM25.2315 15.3612C25.2058 15.3098 25.1703 15.2639 25.1269 15.2262C25.0835 15.1885 25.0331 15.1598 24.9785 15.1416C24.924 15.1234 24.8664 15.1161 24.8091 15.1202C24.7518 15.1242 24.6958 15.1395 24.6444 15.1652L22.0194 16.4777C21.9679 16.5034 21.922 16.539 21.8844 16.5824C21.8467 16.6258 21.8179 16.6762 21.7997 16.7307C21.7815 16.7852 21.7742 16.8428 21.7783 16.9001C21.7823 16.9575 21.7977 17.0135 21.8234 17.0649L22.0194 17.4569C22.0713 17.5604 22.1623 17.639 22.2722 17.6756C22.382 17.7122 22.502 17.7037 22.6056 17.652L25.2306 16.3395C25.3343 16.2877 25.4131 16.1968 25.4499 16.0869C25.4866 15.977 25.4782 15.857 25.4266 15.7532L25.2315 15.3612ZM3.55073 16.189C3.47322 16.1027 3.36459 16.0507 3.24874 16.0445C3.1329 16.0382 3.01932 16.0782 2.93298 16.1557L2.66086 16.4007C2.60203 16.4537 2.55867 16.5216 2.5354 16.5973C2.51214 16.673 2.50983 16.7535 2.52873 16.8304L2.56723 16.9852C2.58515 17.053 2.61906 17.1154 2.66611 17.1672L6.51261 21.4416C6.59025 21.5278 6.69894 21.5796 6.81478 21.5857C6.93062 21.5918 7.04414 21.5516 7.13036 21.474L7.45498 21.1817C7.5413 21.1042 7.59329 20.9956 7.59953 20.8798C7.60576 20.7639 7.56573 20.6503 7.48823 20.564L3.55073 16.189ZM18.2437 18.8709C18.2197 18.8186 18.1856 18.7716 18.1434 18.7325C18.1012 18.6935 18.0517 18.6631 17.9977 18.6432C17.9437 18.6233 17.8864 18.6142 17.8289 18.6165C17.7714 18.6188 17.715 18.6324 17.6627 18.6565L11.9752 21.2815C11.923 21.3055 11.876 21.3396 11.8369 21.3818C11.7978 21.4241 11.7675 21.4736 11.7476 21.5275C11.7276 21.5815 11.7186 21.6389 11.7209 21.6963C11.7231 21.7538 11.7367 21.8103 11.7609 21.8625L11.9446 22.2597C11.9687 22.3119 12.0029 22.3589 12.0451 22.3978C12.0874 22.4368 12.1369 22.4671 12.1909 22.4869C12.2448 22.5067 12.3022 22.5157 12.3596 22.5134C12.417 22.511 12.4734 22.4974 12.5256 22.4732L18.2131 19.8482C18.3183 19.7995 18.3998 19.7111 18.4399 19.6023C18.4799 19.4936 18.4751 19.3734 18.4266 19.2681L18.2437 18.8709ZM20.3997 19.6662C20.2846 19.6519 20.1685 19.6838 20.077 19.755C19.9854 19.8263 19.9259 19.9309 19.9115 20.046L19.474 23.546C19.4596 23.6611 19.4916 23.7772 19.5628 23.8687C19.634 23.9603 19.7386 24.0198 19.8537 24.0342L20.02 24.0552C20.1207 24.0681 20.2228 24.0455 20.3087 23.9914C20.412 23.9257 20.5144 23.8584 20.6159 23.7901C20.6675 23.7552 20.7111 23.7097 20.7436 23.6565C20.7762 23.6034 20.7971 23.544 20.8049 23.4821L21.2135 20.2096C21.2207 20.1526 21.2166 20.0946 21.2014 20.0392C21.1863 19.9837 21.1603 19.9317 21.125 19.8863C21.0898 19.8409 21.0459 19.8029 20.9959 19.7744C20.9459 19.7459 20.8908 19.7276 20.8337 19.7205L20.3997 19.6662ZM8.46736 22.7261C8.38532 22.6441 8.27406 22.598 8.15805 22.598C8.04204 22.598 7.93078 22.6441 7.84873 22.7261L7.40248 23.1724C7.35664 23.2181 7.32152 23.2735 7.29968 23.3345C7.27783 23.3955 7.2698 23.4605 7.27617 23.525C7.28253 23.5895 7.30313 23.6517 7.33647 23.7072C7.36982 23.7628 7.41508 23.8102 7.46898 23.8461C7.59761 23.9327 7.72886 24.0159 7.86098 24.0964C7.94473 24.1475 8.04323 24.169 8.14067 24.1574C8.2381 24.1459 8.32882 24.1018 8.39823 24.0325L8.77623 23.6545C8.85825 23.5725 8.90433 23.4612 8.90433 23.3452C8.90433 23.2292 8.85825 23.1179 8.77623 23.0359L8.46736 22.7261ZM11.7687 23.1024C11.6759 23.0327 11.5592 23.0029 11.4444 23.0193C11.3295 23.0357 11.2259 23.097 11.1562 23.1899L10.8937 23.5399C10.8241 23.6327 10.7942 23.7494 10.8106 23.8642C10.827 23.9791 10.8884 24.0828 10.9812 24.1524C11.942 24.8734 13.0882 25.3397 14.105 25.6267C14.3062 25.6827 14.5031 25.7335 14.6947 25.7772C14.7366 25.7867 14.7797 25.7899 14.8225 25.7869C15.3473 25.7509 15.8691 25.6798 16.3844 25.5742C16.4882 25.5534 16.581 25.4955 16.6454 25.4115C16.7098 25.3274 16.7416 25.2228 16.7347 25.1171C16.7279 25.0114 16.6829 24.9117 16.6082 24.8367C16.5335 24.7616 16.434 24.7162 16.3284 24.7089C15.6965 24.6543 15.0715 24.5385 14.462 24.3632C13.5397 24.1034 12.558 23.6939 11.7687 23.1024Z" fill="#BEBEBE"/>
<path d="M6.33763 5.85546L8.63888 5.27971C8.71282 5.26106 8.78401 5.23282 8.85063 5.19571L12.0531 3.41684C12.1785 3.34703 12.2848 3.24748 12.3626 3.12693C12.4404 3.00639 12.4874 2.86856 12.4994 2.72559C10.0609 3.04767 7.79324 4.15386 6.03838 5.87734C6.13869 5.88704 6.23993 5.88022 6.33763 5.85546ZM3.06688 17.1508C2.77294 16.127 2.6242 15.0669 2.625 14.0017C2.625 12.7531 2.82625 11.5517 3.19813 10.4282L3.5 12.6V17.0642L3.06688 17.1508ZM21.315 22.7132C19.7688 24.0153 17.9023 24.8799 15.9093 25.2175L16.1875 24.9392L20.125 23.1892L21.315 22.7132ZM24.9576 10.9392C25.2353 11.9363 25.3758 12.9667 25.375 14.0017C25.3767 15.3742 25.1295 16.7355 24.6453 18.0197C24.269 17.4693 23.9453 16.583 24.5 15.7517C25.2 14.7017 25.0836 12.1056 24.9375 10.9392H24.9576ZM19.957 4.30934C20.3 4.52109 20.6308 4.75034 20.9493 4.99534L22.3808 7.28609C22.4859 7.45387 22.5311 7.65236 22.5088 7.84912C22.4866 8.04588 22.3982 8.22928 22.2583 8.36934L21.483 9.14371C21.345 9.28152 21.1649 9.36928 20.9714 9.39305C20.7778 9.41683 20.5819 9.37527 20.4146 9.27496L17.0494 7.25634C16.92 7.17858 16.8129 7.06866 16.7385 6.93725C16.6641 6.80585 16.625 6.65745 16.625 6.50646V4.91659C16.625 4.79355 16.6509 4.6719 16.7011 4.55957C16.7513 4.44724 16.8246 4.34676 16.9163 4.26469C17.0079 4.18261 17.1159 4.12078 17.233 4.08325C17.3502 4.04571 17.474 4.0333 17.5963 4.04684L19.957 4.30934ZM8.42538 7.92659L6.468 10.8613C6.36765 11.0121 6.31653 11.1902 6.3217 11.3712C6.32687 11.5523 6.38808 11.7272 6.49688 11.872L8.3475 14.3395C8.46282 14.4938 8.62583 14.6057 8.81124 14.6579C8.99666 14.7101 9.19412 14.6997 9.373 14.6282L12.5755 13.3463C12.7377 13.2813 12.8767 13.1692 12.9747 13.0245C13.0726 12.8798 13.125 12.7091 13.125 12.5343V9.03171C13.1249 8.8295 13.0547 8.63358 12.9265 8.47725C12.7982 8.32093 12.6198 8.21384 12.4215 8.17421L9.324 7.55384C9.15414 7.52006 8.97808 7.53745 8.81811 7.60381C8.65814 7.67016 8.52146 7.7825 8.42538 7.92659ZM12.6088 21.9852L12.3813 23.5865C12.3095 24.0835 11.83 24.4527 11.3304 24.4107C10.3066 24.325 8.8235 24.1377 7.875 23.1892C6.9125 22.2267 6.4995 21.4217 6.2895 20.7742C6.16875 20.398 6.37 20.0042 6.72263 19.8275L8.29588 19.0408C8.43391 18.9719 8.5877 18.9407 8.74167 18.9504C8.89565 18.9601 9.04432 19.0103 9.17263 19.096L12.229 21.133C12.3664 21.2246 12.4751 21.3533 12.5424 21.5041C12.6098 21.6549 12.6331 21.8217 12.6096 21.9852M16.625 19.425V15.9066C16.6251 15.7317 16.6776 15.5609 16.7757 15.4162C16.8738 15.2715 17.013 15.1595 17.1754 15.0946L20.3621 13.8197C20.544 13.747 20.745 13.7373 20.933 13.7924C21.121 13.8474 21.2851 13.964 21.399 14.1233L22.8541 16.1603C22.9531 16.299 23.0095 16.4635 23.0163 16.6337C23.0231 16.8039 22.9802 16.9723 22.8926 17.1185L20.8871 20.461C20.7927 20.6186 20.6509 20.7425 20.4821 20.815C20.3133 20.8876 20.1259 20.9051 19.9465 20.8652L17.3101 20.279C17.1158 20.2358 16.9421 20.1276 16.8175 19.9724C16.6929 19.8171 16.625 19.624 16.625 19.425Z" fill="#3F5FFF"/>
<path fill-rule="evenodd" clip-rule="evenodd" d="M26.25 14.002C26.25 20.7675 20.7655 26.252 14 26.252C7.2345 26.252 1.75 20.7675 1.75 14.002C1.75 7.23645 7.2345 1.75195 14 1.75195C20.7655 1.75195 26.25 7.23645 26.25 14.002ZM14 25.377C20.2825 25.377 25.375 20.2845 25.375 14.002C25.375 7.71945 20.2825 2.62695 14 2.62695C7.7175 2.62695 2.625 7.71945 2.625 14.002C2.625 20.2845 7.7175 25.377 14 25.377Z" fill="#1C5CD7"/>
</svg>
