<svg width="19" height="24" viewBox="0 0 19 24" fill="none" xmlns="http://www.w3.org/2000/svg">
<path d="M9.33333 11.5556C10.8657 11.5556 12.3353 10.9468 13.4188 9.86328C14.5024 8.77974 15.1111 7.31014 15.1111 5.77778C15.1111 4.24542 14.5024 2.77582 13.4188 1.69227C12.3353 0.608728 10.8657 0 9.33333 0C7.80097 0 6.33137 0.608728 5.24783 1.69227C4.16428 2.77582 3.55556 4.24542 3.55556 5.77778C3.55556 7.31014 4.16428 8.77974 5.24783 9.86328C6.33137 10.9468 7.80097 11.5556 9.33333 11.5556ZM0 16.8889C0 15.9459 0.374602 15.0415 1.0414 14.3747C1.70819 13.7079 2.61256 13.3333 3.55556 13.3333H15.1111C16.0541 13.3333 16.9585 13.7079 17.6253 14.3747C18.2921 15.0415 18.6667 15.9459 18.6667 16.8889C18.6667 16.8889 18.6667 24 9.33333 24C0 24 0 16.8889 0 16.8889Z" fill="#868689"/>
</svg>
