<svg width="31" height="24" viewBox="0 0 31 24" fill="none" xmlns="http://www.w3.org/2000/svg">
<path d="M9.33333 11.5556C10.8657 11.5556 12.3353 10.9468 13.4188 9.86328C14.5024 8.77974 15.1111 7.31014 15.1111 5.77778C15.1111 4.24542 14.5024 2.77582 13.4188 1.69227C12.3353 0.608728 10.8657 0 9.33333 0C7.80097 0 6.33137 0.608728 5.24783 1.69227C4.16428 2.77582 3.55556 4.24542 3.55556 5.77778C3.55556 7.31014 4.16428 8.77974 5.24783 9.86328C6.33137 10.9468 7.80097 11.5556 9.33333 11.5556ZM19.4436 20.7022C20.3858 21.088 21.584 21.3333 23.1093 21.3333C30.2204 21.3333 30.2204 16 30.2204 16C30.2204 15.2931 29.9397 14.6151 29.44 14.115C28.9403 13.615 28.2625 13.3338 27.5556 13.3333H19.328C20.0267 14.1796 20.4462 15.2622 20.4462 16.4444V17.0773C20.4424 17.227 20.4324 17.3765 20.416 17.5253C20.295 18.6359 19.9639 19.7137 19.4436 20.7022ZM27.5556 7.11111C27.5556 8.28985 27.0873 9.42031 26.2538 10.2538C25.4203 11.0873 24.2899 11.5556 23.1111 11.5556C21.9324 11.5556 20.8019 11.0873 19.9684 10.2538C19.1349 9.42031 18.6667 8.28985 18.6667 7.11111C18.6667 5.93237 19.1349 4.80191 19.9684 3.96841C20.8019 3.13492 21.9324 2.66667 23.1111 2.66667C24.2899 2.66667 25.4203 3.13492 26.2538 3.96841C27.0873 4.80191 27.5556 5.93237 27.5556 7.11111ZM0 16.8889C0 15.9459 0.374602 15.0415 1.0414 14.3747C1.70819 13.7079 2.61256 13.3333 3.55556 13.3333H15.1111C16.0541 13.3333 16.9585 13.7079 17.6253 14.3747C18.2921 15.0415 18.6667 15.9459 18.6667 16.8889C18.6667 16.8889 18.6667 24 9.33333 24C0 24 0 16.8889 0 16.8889Z" fill="#868689"/>
</svg>
